1.9Hzhigh3min_grf.mot
version=1
nRows=25
nColumns 19
inDegrees=yes
endheader
time	1_ground_force_vx	1_ground_force_vy	1_ground_force_vz	1_ground_force_px	1_ground_force_py	1_ground_force_pz	1_ground_torque_x	1_ground_torque_y	1_ground_torque_z	2_ground_force_vx	2_ground_force_vy	2_ground_force_vz	2_ground_force_px	2_ground_force_py	2_ground_force_pz	2_ground_torque_x	2_ground_torque_y	2_ground_torque_z
            3.751500	           -0.411820	           -1.082657	            0.225666	           -0.233013	            0.005581	           -0.255695	            0.009449	            0.064846	           -0.092492	           -7.031803	           13.975424	           -1.448794	           -0.034085	            0.005906	           -0.570332	            0.080468	           -0.159927	            0.016579
            3.752000	           -0.595326	            0.899837	            0.326335	           -0.233013	            0.005581	           -0.255695	            0.098309	           -0.286708	           -0.045715	           -6.937439	           13.791614	           -1.449491	           -0.029780	            0.005909	           -0.566899	            0.060468	           -0.120210	            0.012634
            3.752500	           -0.503721	            0.719786	            0.279479	           -0.233013	            0.005581	           -0.255695	            0.006584	           -0.332983	           -0.022972	           -7.217250	           13.422637	           -1.544542	           -0.028171	            0.005889	           -0.559485	            0.042924	           -0.079830	            0.009186
            3.753000	           -0.365965	            0.719419	            0.370849	           -0.233013	            0.005581	           -0.255695	           -0.091235	           -0.240421	           -0.035266	           -7.078050	           13.791608	           -1.590215	           -0.035069	            0.005874	           -0.562469	            0.046366	           -0.090344	            0.010417
            3.753500	           -0.503119	            0.538537	            0.507985	           -0.233013	            0.005581	           -0.255695	            0.015557	            0.175494	           -0.039606	           -7.219306	           13.975584	           -1.683355	           -0.032778	            0.005893	           -0.565427	            0.073913	           -0.143085	            0.017235
            3.754000	           -0.365249	            0.537974	            0.645212	           -0.233013	            0.005581	           -0.255695	            0.159800	            0.369783	           -0.052065	           -7.080003	           14.343719	           -1.494388	           -0.040698	            0.005898	           -0.574914	            0.092939	           -0.188289	            0.019617
            3.754500	            0.595313	            5.407496	            0.159278	           -0.233013	            0.005581	           -0.255695	            0.930113	            0.026819	            0.342593	           -7.172394	           13.975251	           -1.542590	           -0.028163	            0.005934	           -0.572310	            0.128286	           -0.249963	            0.027591
            3.755000	            2.517925	           11.359584	           -0.507832	           -0.162445	            0.006441	           -0.453204	           -0.066050	           -0.297984	            0.013321	           -7.126935	           14.344219	           -1.682080	           -0.039542	            0.005879	           -0.568383	            0.092822	           -0.186821	            0.021908
            3.755500	            5.176241	           15.145480	           -0.452343	           -0.190599	            0.006490	           -0.465693	           -0.219145	           -0.641209	            0.019151	           -6.938789	           14.160078	           -1.495105	           -0.031811	            0.005910	           -0.569251	            0.106956	           -0.218266	            0.023046
            3.756000	            8.157066	           19.469286	            0.292507	           -0.202770	            0.006478	           -0.463542	           -0.256568	           -0.612376	           -0.009200	           -7.030392	           13.606458	           -1.262396	           -0.025082	            0.005902	           -0.560147	            0.027972	           -0.054136	            0.005023
            3.756500	           10.726129	           26.134304	            1.552845	           -0.189340	            0.006448	           -0.456002	           -0.018588	           -0.045290	           -0.002691	           -6.984289	           13.791445	           -1.449471	           -0.033229	            0.005895	           -0.566266	            0.107085	           -0.211455	            0.022224
            3.757000	           12.694082	           38.574785	            1.188584	           -0.175067	            0.006503	           -0.468232	            0.165289	            0.502281	            0.015477	           -6.983583	           13.606961	           -1.356272	           -0.034333	            0.005902	           -0.569412	            0.089959	           -0.175279	            0.017471
            3.757500	           15.207903	           60.573780	           -0.144906	           -0.182796	            0.006526	           -0.473943	            0.111856	            0.445529	           -0.001066	           -6.889925	           13.607635	           -1.450168	           -0.030651	            0.005899	           -0.565010	            0.112569	           -0.222324	            0.023693
            3.758000	           18.136246	           74.460112	           -1.330779	           -0.208921	            0.006537	           -0.477413	           -0.093879	           -0.385428	            0.006889	           -6.937377	           13.791112	           -1.308706	           -0.028444	            0.005892	           -0.560854	            0.068885	           -0.136939	            0.012995
            3.758500	           22.503435	           64.888981	            2.790333	           -0.258946	            0.006429	           -0.454530	           -0.369073	           -1.064229	           -0.045764	           -7.457481	           15.079126	           -1.538528	           -0.047497	            0.005884	           -0.577666	            0.091707	           -0.185433	            0.018920
            3.759000	           27.466758	           56.218704	            7.051399	           -0.260684	            0.006392	           -0.445940	           -0.108018	           -0.221091	           -0.027731	           -7.223314	           15.080641	           -1.726340	           -0.053190	            0.005856	           -0.575651	            0.122350	           -0.255440	            0.029241
            3.759500	           27.876297	           58.566760	            6.005738	           -0.182488	            0.006504	           -0.468796	            1.259330	            2.645792	            0.271313	           -7.218724	           13.792105	           -1.871724	           -0.037439	            0.005893	           -0.570048	            0.092271	           -0.176292	            0.023925
            3.760000	           19.381050	           67.059628	            0.927253	           -0.181321	            0.006577	           -0.485666	            0.751820	            2.601342	            0.035970	           -6.703066	           13.791455	           -1.168022	           -0.026108	            0.005897	           -0.559679	            0.104188	           -0.214366	            0.018155
            3.760500	            4.876600	           80.603690	           -5.261081	           -0.237672	            0.006474	           -0.464061	           -0.028303	           -0.467809	            0.030534	           -6.749251	           13.607138	           -1.168659	           -0.022906	            0.005913	           -0.560974	            0.073419	           -0.148020	            0.012713
            3.761000	           -2.430875	          110.548796	          -10.342253	           -0.250232	            0.006419	           -0.451783	            0.062262	           -2.831493	            0.264897	           -6.886375	           12.685052	           -0.937244	           -0.019760	            0.005886	           -0.550386	           -0.025123	            0.046278	           -0.003419
            3.761500	            4.076678	          135.422588	           -9.288766	           -0.227803	            0.006494	           -0.468291	           -0.099365	           -3.300780	            0.226404	           -7.262894	           13.055175	           -1.827404	           -0.022609	            0.005911	           -0.560140	            0.046097	           -0.082859	            0.011598
            3.762000	           17.764188	          134.118345	            1.172922	           -0.230286	            0.006522	           -0.474859	           -0.128319	           -0.968803	           -0.008473	           -7.686037	           13.423288	           -2.201336	           -0.026042	            0.005906	           -0.562168	            0.063337	           -0.110615	            0.018140
            3.762500	           27.651689	          126.857915	           13.177646	           -0.243305	            0.006462	           -0.461561	            0.429531	            1.970565	            0.204697	           -7.832589	           15.080283	           -2.242291	           -0.049099	            0.005897	           -0.583087	            0.084906	           -0.163471	            0.024307
            3.763000	           25.961280	          130.091360	           15.763701	           -0.235588	            0.006460	           -0.460691	            0.892223	            4.470908	            0.541758	           -7.036600	           15.265634	           -1.772691	           -0.052250	            0.005881	           -0.581796	            0.151372	           -0.328396	            0.038134
            3.763500	           10.950038	          136.251116	            7.985825	           -0.218715	            0.006526	           -0.475399	            0.332060	            4.131812	            0.242170	           -6.328164	           13.791972	           -0.933541	           -0.046418	            0.005847	           -0.566266	            0.107088	           -0.233393	            0.015798
